<?xml version="1.0" encoding="utf-8"?>
<!-- Generator: Adobe Illustrator 24.1.2, SVG Export Plug-In . SVG Version: 6.00 Build 0)  -->
<svg version="1.1" id="Слой_1" xmlns="http://www.w3.org/2000/svg" xmlns:xlink="http://www.w3.org/1999/xlink" x="0px" y="0px"
	 viewBox="0 0 595 500" style="enable-background:new 0 0 595 500;" xml:space="preserve">
<style type="text/css">
	.st0{fill-rule:evenodd;clip-rule:evenodd;fill:#F0145A;}
	.st1{fill-rule:evenodd;clip-rule:evenodd;fill:url(#SVGID_1_);}
</style>
<path class="st0" d="M46.8,687.5H0c0,0,187.8-578.2,207.8-639.4c9.3-28.7,36-48,66.1-48h83.7c25.2,0,46.3,10.7,59.4,28.7
	c13.1,18,16.8,41.1,9.2,64.6c-7.6,23.5-14.9,45.7-21.5,66c-8.9,27.5-33.6,46.4-62.2,47.9c0,0-0.1,0,39.9-123.2
	c3.5-10.9,2.2-21.5-3.3-29.1c-5.5-7.6-14.9-12.1-27.3-12.1h-71.8c-14.1,0-26.6,9.1-30.9,22.5L46.8,687.5z"/>
<linearGradient id="SVGID_1_" gradientUnits="userSpaceOnUse" x1="273.5434" y1="365.7509" x2="378.4624" y2="310.9129" gradientTransform="matrix(1 0 0 -1 0 500)">
	<stop  offset="0" style="stop-color:#F0145A"/>
	<stop  offset="1" style="stop-color:#693264"/>
</linearGradient>
<path class="st1" d="M342.4,207.2h-94.3l41.6-126.4l47,0.3l-27.3,83.4l46.9,0L342.4,207.2z"/>
</svg>
