<svg width="42" height="47" xmlns="http://www.w3.org/2000/svg">
 <defs>
  <linearGradient y2="1.242097" x2="0.970202" y1="0.808467" x1="-0.000066" id="paint0_linear_20911:2072">
   <stop stop-color="#F0145A"/>
   <stop stop-color="#693264" offset="1"/>
  </linearGradient>
 </defs>
 <g>
  <title>background</title>
  <rect fill="none" id="canvas_background" height="402" width="582" y="-1" x="-1"/>
 </g>
 <g>
  <title>Layer 1</title>
  <path id="svg_1" fill="url(#paint0_linear_20911:2072)" d="m30.258,26.1452l-11.9291,0l5.2562,-15.9915l5.9465,0.0351l-3.4529,10.5463l5.9289,0.0035l-1.7496,5.4066z" clip-rule="evenodd" fill-rule="evenodd"/>
  <path id="svg_2" fill="#F0145A" d="m5.90442,46.9044l-5.90442,0c0,0 10.7544,-33.1104 13.2657,-40.83964c1.1749,-3.61632 4.5432,-6.06476 8.3437,-6.06476l10.5556,0c3.1832,0 5.8399,1.34505 7.4917,3.61793c1.6506,2.27301 2.1188,5.1814 1.1563,8.14847c-0.9638,2.967 -1.8742,5.7678 -2.7075,8.334c-1.1253,3.465 -4.2427,5.8526 -7.8469,6.0467c0,0 -0.0186,-0.006 5.0313,-15.5547c0.4459,-1.37214 0.2831,-2.7152 -0.4173,-3.67845c-0.6993,-0.96312 -1.8792,-1.53315 -3.4403,-1.53315l-9.0579,0c-1.7785,0 -3.3546,1.14576 -3.9048,2.83807l-12.56518,38.68553z" clip-rule="evenodd" fill-rule="evenodd"/>
 </g>
</svg>