<?xml version="1.0" encoding="UTF-8"?>
<svg xmlns="http://www.w3.org/2000/svg" xmlns:xlink="http://www.w3.org/1999/xlink" width="21px" height="24px" viewBox="0 0 21 23" version="1.1">
<defs>
<linearGradient id="linear0" gradientUnits="userSpaceOnUse" x1="18.328" y1="23.082" x2="31.6" y2="30.017" gradientTransform="matrix(0.5,0,0,0.489362,0,0)">
<stop offset="0" style="stop-color:rgb(94.117647%,7.843137%,35.294118%);stop-opacity:1;"/>
<stop offset="1" style="stop-color:rgb(41.176471%,19.607843%,39.215686%);stop-opacity:1;"/>
</linearGradient>
</defs>
<g id="surface1">
<path style=" stroke:none;fill-rule:evenodd;fill:url(#linear0);" d="M 15.128906 12.792969 L 9.164062 12.792969 L 11.792969 4.96875 L 14.765625 4.984375 L 13.039062 10.148438 L 16.003906 10.148438 Z M 15.128906 12.792969 "/>
<path style=" stroke:none;fill-rule:evenodd;fill:rgb(94.117647%,7.843137%,35.294118%);fill-opacity:1;" d="M 2.953125 22.953125 L 0 22.953125 C 0 22.953125 5.378906 6.75 6.632812 2.96875 C 7.21875 1.199219 8.902344 0 10.804688 0 L 16.082031 0 C 17.675781 0 19.003906 0.65625 19.828125 1.769531 C 20.652344 2.882812 20.886719 4.304688 20.40625 5.757812 L 19.050781 9.835938 C 18.496094 11.523438 16.9375 12.699219 15.128906 12.796875 C 15.128906 12.796875 15.121094 12.792969 17.644531 5.183594 C 17.867188 4.511719 17.785156 3.855469 17.4375 3.382812 C 17.085938 2.914062 16.496094 2.632812 15.714844 2.632812 L 11.1875 2.632812 C 10.296875 2.632812 9.511719 3.195312 9.234375 4.023438 Z M 2.953125 22.953125 "/>
</g>
</svg>
